<?xml version="1.0" ?>
<svg height="50px" version="1.1" viewBox="0 0 50 50" width="50px" xmlns="http://www.w3.org/2000/svg" xmlns:sketch="http://www.bohemiancoding.com/sketch/ns" xmlns:xlink="http://www.w3.org/1999/xlink">
  <title/>
  <defs/>
  <g fill="none" fill-rule="evenodd" id="Page-1" stroke="none" stroke-width="1">
    <g fill="#000000" id="Twitter">
      <path d="M25,50 C38.8071194,50 50,38.8071194 50,25 C50,11.1928806 38.8071194,0 25,0 C11.1928806,0 0,11.1928806 0,25 C0,38.8071194 11.1928806,50 25,50 Z M25,47 C37.1502651,47 47,37.1502651 47,25 C47,12.8497349 37.1502651,3 25,3 C12.8497349,3 3,12.8497349 3,25 C3,37.1502651 12.8497349,47 25,47 Z M24.6822554,20.5542975 L24.729944,21.3761011 L23.9351333,21.2754721 C21.0420225,20.8897275 18.5145246,19.5815504 16.3685358,17.3844837 L15.3193857,16.2943361 L15.0491501,17.0993681 C14.4768864,18.8939188 14.8424993,20.7890985 16.03447153,22.0637326 C16.6705638,22.7681357 16.52749979,22.8688761 15.4306592,22.4494772 C15.0491501,22.3153051 14.7153296,22.2146761 14.6835371,22.2649907 C14.57222637,22.3823912 14.9537728,23.9085978 15.25558008,24.5123719 C15.66911024,25.350947 16.5116017,26.1727505 17.433582,26.6591241 L18.2124965,27.0448686 L17.2905161,27.0616401 C16.4003282,27.0616401 16.3685358,27.0788411 16.4639131,27.4306131 C16.7818374,28.52077608 18.03776382,29.67779944 19.436505,30.18111394 L20.4220701,30.5333341 L19.5636746,31.070029 C18.29179776,31.8415181 16.79773335,32.27757572 15.3034895,32.3111202 C14.5881599,32.32778916 14,32.39499776 14,32.44452922 C14,32.6130071 15.9399338,33.5522113 17.06796292,33.9211843 C20.4538626,35.0113319 24.4756046,34.5417298 27.4958851,32.6800932 C29.6418739,31.355145 31.7878628,28.72220188 32.7893242,26.1727505 C33.3297954,24.81442589 33.8702667,22.33207667 33.8702667,21.1413 C33.8702667,20.369811 33.9179553,20.26918182 34.8081432,19.34674894 C35.3327178,18.8100613 35.8255009,18.22305888 35.92087382,18.0553437 C36.07984303,17.73666852 35.96394242,17.73666852 35.25320731,18.02118007 C34.38794555,18.52494958 33.71113045,18.45778598 34.37894555,17.70314221 C34.87172866,17.16645145 35.4598888,16.1937071 35.4598888,15.9085915 C35.4598888,15.858277 35.22144888,15.94213446 34.9512092,16.093078 C34.66507731,16.26079315 34.02922288,16.51236556 33.55223424,16.66333091 L32.693939469,16.948424246 L31.9150324,16.3949619 C31.4858346,16.093078 30.8817776,15.757648 30.56385435,15.65701019 C29.7531474,15.4222218 28.51332428,15.45576199 27.7820169,15.72410561 C25.79499903,16.47880823 24.5391867,18.4243168 24.6822554,20.5542975 Z M24.6822554,20.5542975" id="Oval-1"/>
    </g>
  </g>
</svg>
